<svg width="25" height="24" viewBox="0 0 25 24" fill="none" xmlns="http://www.w3.org/2000/svg">
<path d="M16.7756 4.06348C16.1728 4.00235 15.7499 4.49789 15.7499 4.99987V18.9999C15.7499 19.4141 16.0857 19.7499 16.4999 19.7499C16.9142 19.7499 17.2499 19.4141 17.2499 18.9999L17.2499 5.91882C17.2499 5.89625 17.2759 5.88364 17.2935 5.89777C17.6161 6.15687 17.9996 6.54222 18.5694 7.11712L19.9672 8.5275C20.2588 8.82169 20.7337 8.82381 21.0279 8.53223C21.3221 8.24065 21.3242 7.76578 21.0326 7.47158L19.6043 6.03045C19.0729 5.49426 18.6297 5.04708 18.2327 4.72823C17.8163 4.3938 17.3786 4.13943 16.8454 4.07147C16.8222 4.06851 16.7989 4.06584 16.7756 4.06348Z" fill="#2D264B"/>
<path d="M9.24994 4.99988C9.24994 4.58567 8.91415 4.24988 8.49994 4.24988C8.08573 4.24988 7.74994 4.58567 7.74994 4.99988L7.74994 17.8807C7.74994 17.9033 7.72402 17.9159 7.70643 17.9018C7.3838 17.6427 7.00027 17.2573 6.43048 16.6824L5.03263 15.272C4.74105 14.9778 4.26618 14.9757 3.97198 15.2673C3.67778 15.5589 3.67566 16.0337 3.96725 16.3279L5.39557 17.7691C5.92696 18.3052 6.37016 18.7524 6.76718 19.0713C7.1836 19.4057 7.62125 19.6601 8.15444 19.728C8.80506 19.811 9.24994 19.2714 9.24994 18.7485L9.24994 4.99988Z" fill="#2D264B"/>
</svg>
