<svg width="25" height="24" viewBox="0 0 25 24" fill="none" xmlns="http://www.w3.org/2000/svg">
<path d="M7.75 8C7.75 5.37665 9.87665 3.25 12.5 3.25C15.1234 3.25 17.25 5.37665 17.25 8C17.25 10.6234 15.1234 12.75 12.5 12.75C9.87665 12.75 7.75 10.6234 7.75 8Z" fill="#2D264B"/>
<path fill-rule="evenodd" clip-rule="evenodd" d="M11.6462 1.25H13.3538C14.8096 1.24999 15.951 1.24999 16.8664 1.32925C17.7988 1.40998 18.5668 1.57719 19.2557 1.95335C20.2231 2.48162 21.0184 3.27685 21.5467 4.24432C21.9228 4.9332 22.09 5.70118 22.1708 6.63362C22.25 7.54902 22.25 8.69034 22.25 10.1461V13.2998C22.25 13.3587 22.25 13.3945 22.2497 13.4257C22.2282 15.4183 21.1939 17.1666 19.6403 18.181C18.7534 18.7601 17.6962 19.1011 16.5621 19.1133C16.531 19.1136 16.4954 19.1136 16.4371 19.1136L16.4253 19.1136L16.4241 19.1136C16.3571 19.114 16.293 19.1413 16.2463 19.1893L15.8854 19.5642C15.2399 20.235 14.7025 20.7932 14.2174 21.1768C13.706 21.5811 13.1625 21.8659 12.5 21.8659C11.8375 21.8659 11.294 21.5811 10.7826 21.1768C10.2974 20.7932 9.76013 20.2349 9.11457 19.5642L8.75452 19.1901L8.75371 19.1893C8.70698 19.1413 8.64293 19.114 8.57593 19.1136L8.5747 19.1136L8.56294 19.1136C8.50458 19.1136 8.46899 19.1136 8.43795 19.1133C7.30376 19.1011 6.24659 18.7601 5.35969 18.181C3.80611 17.1666 2.77184 15.4183 2.75034 13.4257C2.75 13.3946 2.75 13.359 2.75 13.3005V10.1462C2.74999 8.69035 2.74999 7.54902 2.82925 6.63362C2.90998 5.70118 3.07719 4.9332 3.45335 4.24432C3.98162 3.27685 4.77685 2.48162 5.74432 1.95335C6.4332 1.57719 7.20118 1.40998 8.13362 1.32925C9.04903 1.24999 10.1904 1.24999 11.6462 1.25ZM8.26301 2.82366C7.42944 2.89583 6.89438 3.03442 6.46319 3.26987C5.74811 3.66033 5.16033 4.24811 4.76987 4.96319C4.53442 5.39438 4.39583 5.92944 4.32366 6.76301C4.25066 7.60616 4.25 8.68267 4.25 10.1818V13.2949C4.25 13.3607 4.25001 13.3876 4.25025 13.4095C4.26288 14.58 4.74774 15.637 5.52505 16.3989C6.37316 15.1054 7.83606 14.25 9.5 14.25H15.5C17.1639 14.25 18.6268 15.1054 19.4749 16.3989C20.2523 15.637 20.7371 14.58 20.7498 13.4095C20.75 13.3876 20.75 13.3607 20.75 13.2949V10.1818C20.75 8.68267 20.7493 7.60616 20.6763 6.76301C20.6042 5.92944 20.4656 5.39438 20.2301 4.96319C19.8397 4.24811 19.2519 3.66033 18.5368 3.26987C18.1056 3.03442 17.5706 2.89583 16.737 2.82366C15.8938 2.75066 14.8173 2.75 13.3182 2.75H11.6818C10.1827 2.75 9.10616 2.75066 8.26301 2.82366Z" fill="#2D264B"/>
</svg>
